<svg xmlns="http://www.w3.org/2000/svg" viewBox="0.4 -71.0 407.7 73.0" fill="none">
  <path d="M24.10-57.90L2.40-57.90L2.40-69L58.10-69L58.10-57.90L36.40-57.90L36.40 0L24.10 0L24.10-57.90ZM115.40 0L69 0L69-69L115.40-69L115.40-57.90L81.20-57.90L81.20-41.30L112.40-41.30L112.40-30.20L81.20-30.20L81.20-11.10L115.40-11.10L115.40 0ZM141.10 0L128.90 0L128.90-69L162.10-69Q178.40-69 178.40-52.70L178.40-52.70L178.40-41.40Q178.40-28.80 168.40-26.10L168.40-26.10L180.40-2.60L178.90 0L168.50 0L155.70-25.20L141.10-25.20L141.10 0ZM141.10-57.90L141.10-36.30L161.80-36.30Q166.20-36.30 166.20-40.70L166.20-40.70L166.20-53.60Q166.20-57.90 161.80-57.90L161.80-57.90L141.10-57.90ZM205.60 0L193.40 0L193.40-69L206.70-69L237.30-19.80L237.30-69L249.50-69L249.50 0L236.30 0L205.60-49.20L205.60 0ZM278.70 0L266.50 0L266.50-69L278.70-69L278.70 0ZM311.30-57.90L289.60-57.90L289.60-69L345.30-69L345.30-57.90L323.60-57.90L323.60 0L311.30 0L311.30-57.90ZM371.70-24.80L349.60-66.60L351.10-69L361.50-69L377.80-37.70L394.20-69L404.70-69L406.10-66.60L384-24.80L384 0L371.70 0L371.70-24.80Z" fill="#1A1A1A"/>
</svg>